# xmcd
#
# Track frame offsets:
#	150
#	1344
#	5082
#	6935
#	14699
#	16589
#	26016
#	30414
#	85646
#	88894
#	101457
#	104006
#	119180
#	119986
#	136595
#	138457
#	153257
#	155394
#	170473
#	172493
#	183759
#	184802
#	192927
#	195142
#	196722
#	198960
#	200141
#
# Disc length: 2706 seconds
#
# Revision: 2
# Processed by: cddbd v1.4PL0 Copyright (c) Steve Scherf et al.
# Submitted via: audiograbber 1.80
#
DISCID=690a901b
DTITLE=Kaláka - Egyetemi Színpad '76
DYEAR=1900
DGENRE=
TTITLE0=Egyetemi Színpad '76
TTITLE1=Christian Morgenstern: Milyen emlékmûre vágyom? (fordította: Eörsi Istv
TTITLE1=án)
TTITLE2=Egyetemi Színpad '76
TTITLE3=Christian Morgenstern: Akasztófacimbora dala Zsófihoz, a hóhérleányhoz 
TTITLE3=(fordította: Kálnoky László)
TTITLE4=Egyetemi Színpad '76
TTITLE5=Robert Burns: Ha mennél hideg szélben (fordította: Weöres Sándor)
TTITLE6=Egyetemi Színpad '76
TTITLE7=Federico Garcia Lorca: Siratóének Ignacio Sánchez Mejías torreádor fölö
TTITLE7=tt (fordította: Nagy László)
TTITLE8=Egyetemi Színpad '76
TTITLE9=Korzikai dallam
TTITLE10=Egyetemi Színpad '76
TTITLE11=Apáti Miklós: Hiába hívom
TTITLE12=Egyetemi Színpad '76
TTITLE13=Arany János: Tetemrehívás
TTITLE14=Egyetemi Színpad '76
TTITLE15=Kosztolányi Dezsõ: A hosszú, hosszú, hosszú éjszakán
TTITLE16=Egyetemi Színpad '76
TTITLE17=József Attila: Tudod, hogy nincs bocsánat
TTITLE18=Egyetemi Színpad '76
TTITLE19=József Attila: Rög a röghöz
TTITLE20=Egyetemi Színpad '76
TTITLE21=Weöres Sándor: Újjé(!)vi mese
TTITLE22=Egyetemi Színpad '76
TTITLE23=Weöres Sándor: Harap utca
TTITLE24=Egyetemi Színpad '76
TTITLE25=Weöres Sándor: Haragosi
TTITLE26=Egyetemi Színpad '76
EXTD=
EXTT0=
EXTT1=
EXTT2=
EXTT3=
EXTT4=
EXTT5=
EXTT6=
EXTT7=
EXTT8=
EXTT9=
EXTT10=
EXTT11=
EXTT12=
EXTT13=
EXTT14=
EXTT15=
EXTT16=
EXTT17=
EXTT18=
EXTT19=
EXTT20=
EXTT21=
EXTT22=
EXTT23=
EXTT24=
EXTT25=
EXTT26=
PLAYORDER=
